<?xml version="1.0" encoding="UTF-8"?>
<svg xmlns="http://www.w3.org/2000/svg" xmlns:xlink="http://www.w3.org/1999/xlink" width="32px" height="32px" viewBox="0 0 32 32" version="1.1">
<g id="surface1">
<path style=" stroke:none;fill-rule:nonzero;fill:rgb(56.470591%,87.450981%,66.666669%);fill-opacity:1;" d="M 32 16 C 32 7.164062 24.835938 0 16 0 C 7.164062 0 0 7.164062 0 16 C 0 24.835938 7.164062 32 16 32 C 24.835938 32 32 24.835938 32 16 Z M 32 16 "/>
<path style=" stroke:none;fill-rule:nonzero;fill:rgb(80.784315%,83.529413%,87.843138%);fill-opacity:1;" d="M 24.441406 25.871094 L 7.558594 25.871094 C 7.453125 25.871094 7.371094 25.78125 7.371094 25.683594 L 7.371094 6.324219 C 7.371094 6.21875 7.457031 6.136719 7.558594 6.136719 L 24.441406 6.136719 C 24.546875 6.136719 24.628906 6.222656 24.628906 6.324219 L 24.628906 25.683594 C 24.628906 25.78125 24.546875 25.871094 24.441406 25.871094 Z M 24.441406 25.871094 "/>
<path style=" stroke:none;fill-rule:nonzero;fill:rgb(100%,100%,100%);fill-opacity:1;" d="M 7.371094 6.890625 L 7.371094 25.109375 C 7.371094 25.53125 7.710938 25.863281 8.125 25.863281 L 21.605469 25.863281 L 21.605469 23.597656 C 21.605469 23.179688 21.945312 22.839844 22.363281 22.839844 L 24.628906 22.839844 L 24.628906 6.890625 C 24.628906 6.46875 24.289062 6.136719 23.875 6.136719 L 8.125 6.136719 C 7.703125 6.128906 7.371094 6.46875 7.371094 6.890625 Z M 7.371094 6.890625 "/>
<path style=" stroke:none;fill-rule:nonzero;fill:rgb(90.196079%,91.37255%,93.333334%);fill-opacity:1;" d="M 21.605469 25.871094 L 24.628906 22.847656 L 22.363281 22.847656 C 21.945312 22.847656 21.605469 23.1875 21.605469 23.601562 Z M 21.605469 25.871094 "/>
<path style=" stroke:none;fill-rule:nonzero;fill:rgb(80.784315%,83.529413%,87.843138%);fill-opacity:1;" d="M 8.144531 6.980469 L 9.160156 6.980469 L 9.160156 7.453125 L 8.144531 7.453125 Z M 8.144531 6.980469 "/>
<path style=" stroke:none;fill-rule:nonzero;fill:rgb(19.607843%,29.019609%,36.862746%);fill-opacity:1;" d="M 8.332031 5.183594 L 8.96875 5.183594 L 8.96875 7.21875 L 8.332031 7.21875 Z M 8.332031 5.183594 "/>
<path style=" stroke:none;fill-rule:nonzero;fill:rgb(80.784315%,83.529413%,87.843138%);fill-opacity:1;" d="M 10.242188 6.980469 L 11.257812 6.980469 L 11.257812 7.453125 L 10.242188 7.453125 Z M 10.242188 6.980469 "/>
<path style=" stroke:none;fill-rule:nonzero;fill:rgb(19.607843%,29.019609%,36.862746%);fill-opacity:1;" d="M 10.429688 5.183594 L 11.066406 5.183594 L 11.066406 7.21875 L 10.429688 7.21875 Z M 10.429688 5.183594 "/>
<path style=" stroke:none;fill-rule:nonzero;fill:rgb(80.784315%,83.529413%,87.843138%);fill-opacity:1;" d="M 12.347656 6.980469 L 13.359375 6.980469 L 13.359375 7.453125 L 12.347656 7.453125 Z M 12.347656 6.980469 "/>
<path style=" stroke:none;fill-rule:nonzero;fill:rgb(19.607843%,29.019609%,36.862746%);fill-opacity:1;" d="M 12.527344 5.183594 L 13.164062 5.183594 L 13.164062 7.21875 L 12.527344 7.21875 Z M 12.527344 5.183594 "/>
<path style=" stroke:none;fill-rule:nonzero;fill:rgb(80.784315%,83.529413%,87.843138%);fill-opacity:1;" d="M 14.445312 6.980469 L 15.457031 6.980469 L 15.457031 7.453125 L 14.445312 7.453125 Z M 14.445312 6.980469 "/>
<path style=" stroke:none;fill-rule:nonzero;fill:rgb(19.607843%,29.019609%,36.862746%);fill-opacity:1;" d="M 14.632812 5.183594 L 15.269531 5.183594 L 15.269531 7.21875 L 14.632812 7.21875 Z M 14.632812 5.183594 "/>
<path style=" stroke:none;fill-rule:nonzero;fill:rgb(80.784315%,83.529413%,87.843138%);fill-opacity:1;" d="M 16.542969 6.980469 L 17.554688 6.980469 L 17.554688 7.453125 L 16.542969 7.453125 Z M 16.542969 6.980469 "/>
<path style=" stroke:none;fill-rule:nonzero;fill:rgb(19.607843%,29.019609%,36.862746%);fill-opacity:1;" d="M 16.730469 5.183594 L 17.367188 5.183594 L 17.367188 7.21875 L 16.730469 7.21875 Z M 16.730469 5.183594 "/>
<path style=" stroke:none;fill-rule:nonzero;fill:rgb(80.784315%,83.529413%,87.843138%);fill-opacity:1;" d="M 18.644531 6.980469 L 19.660156 6.980469 L 19.660156 7.453125 L 18.644531 7.453125 Z M 18.644531 6.980469 "/>
<path style=" stroke:none;fill-rule:nonzero;fill:rgb(19.607843%,29.019609%,36.862746%);fill-opacity:1;" d="M 18.828125 5.183594 L 19.464844 5.183594 L 19.464844 7.21875 L 18.828125 7.21875 Z M 18.828125 5.183594 "/>
<path style=" stroke:none;fill-rule:nonzero;fill:rgb(80.784315%,83.529413%,87.843138%);fill-opacity:1;" d="M 20.742188 6.980469 L 21.757812 6.980469 L 21.757812 7.453125 L 20.742188 7.453125 Z M 20.742188 6.980469 "/>
<path style=" stroke:none;fill-rule:nonzero;fill:rgb(19.607843%,29.019609%,36.862746%);fill-opacity:1;" d="M 20.933594 5.183594 L 21.570312 5.183594 L 21.570312 7.21875 L 20.933594 7.21875 Z M 20.933594 5.183594 "/>
<path style=" stroke:none;fill-rule:nonzero;fill:rgb(80.784315%,83.529413%,87.843138%);fill-opacity:1;" d="M 22.839844 6.980469 L 23.855469 6.980469 L 23.855469 7.453125 L 22.839844 7.453125 Z M 22.839844 6.980469 "/>
<path style=" stroke:none;fill-rule:nonzero;fill:rgb(19.607843%,29.019609%,36.862746%);fill-opacity:1;" d="M 23.03125 5.183594 L 23.667969 5.183594 L 23.667969 7.21875 L 23.03125 7.21875 Z M 23.03125 5.183594 "/>
<path style=" stroke:none;fill-rule:nonzero;fill:rgb(90.196079%,91.37255%,93.333334%);fill-opacity:1;" d="M 11.148438 13.503906 L 9.191406 13.503906 C 8.933594 13.503906 8.71875 13.292969 8.71875 13.03125 L 8.71875 11.074219 C 8.71875 10.816406 8.933594 10.601562 9.191406 10.601562 L 11.148438 10.601562 C 11.40625 10.601562 11.621094 10.816406 11.621094 11.074219 L 11.621094 13.039062 C 11.617188 13.296875 11.40625 13.503906 11.148438 13.503906 Z M 9.222656 13.007812 L 11.125 13.007812 L 11.125 11.105469 L 9.222656 11.105469 Z M 9.222656 13.007812 "/>
<path style=" stroke:none;fill-rule:nonzero;fill:rgb(90.196079%,91.37255%,93.333334%);fill-opacity:1;" d="M 11.148438 18.1875 L 9.191406 18.1875 C 8.933594 18.1875 8.71875 17.972656 8.71875 17.714844 L 8.71875 15.753906 C 8.71875 15.496094 8.933594 15.28125 9.191406 15.28125 L 11.148438 15.28125 C 11.40625 15.28125 11.621094 15.496094 11.621094 15.753906 L 11.621094 17.714844 C 11.617188 17.972656 11.40625 18.1875 11.148438 18.1875 Z M 9.222656 17.683594 L 11.125 17.683594 L 11.125 15.78125 L 9.222656 15.78125 Z M 9.222656 17.683594 "/>
<path style=" stroke:none;fill-rule:nonzero;fill:rgb(90.196079%,91.37255%,93.333334%);fill-opacity:1;" d="M 11.148438 22.859375 L 9.191406 22.859375 C 8.933594 22.859375 8.71875 22.644531 8.71875 22.386719 L 8.71875 20.429688 C 8.71875 20.171875 8.933594 19.957031 9.191406 19.957031 L 11.148438 19.957031 C 11.40625 19.957031 11.621094 20.171875 11.621094 20.429688 L 11.621094 22.386719 C 11.617188 22.644531 11.40625 22.859375 11.148438 22.859375 Z M 9.222656 22.363281 L 11.125 22.363281 L 11.125 20.460938 L 9.222656 20.460938 Z M 9.222656 22.363281 "/>
<path style=" stroke:none;fill-rule:nonzero;fill:rgb(100%,43.921569%,34.509805%);fill-opacity:1;" d="M 10.046875 12.492188 C 10.089844 12.546875 10.15625 12.585938 10.230469 12.59375 C 10.234375 12.59375 10.242188 12.59375 10.25 12.59375 C 10.316406 12.59375 10.382812 12.566406 10.425781 12.515625 L 13.015625 9.925781 C 13.113281 9.828125 13.113281 9.667969 13.015625 9.574219 C 12.914062 9.472656 12.757812 9.472656 12.660156 9.574219 L 10.273438 11.960938 L 9.921875 11.476562 C 9.839844 11.363281 9.683594 11.339844 9.574219 11.421875 C 9.460938 11.503906 9.441406 11.660156 9.519531 11.765625 Z M 10.046875 12.492188 "/>
<path style=" stroke:none;fill-rule:nonzero;fill:rgb(100%,43.921569%,34.509805%);fill-opacity:1;" d="M 12.660156 14.25 L 10.273438 16.636719 L 9.921875 16.152344 C 9.839844 16.039062 9.683594 16.011719 9.574219 16.09375 C 9.460938 16.175781 9.441406 16.332031 9.519531 16.441406 L 10.046875 17.160156 C 10.089844 17.214844 10.15625 17.253906 10.230469 17.261719 C 10.234375 17.261719 10.242188 17.261719 10.25 17.261719 C 10.316406 17.261719 10.382812 17.234375 10.425781 17.183594 L 13.015625 14.59375 C 13.113281 14.496094 13.113281 14.335938 13.015625 14.242188 C 12.917969 14.15625 12.761719 14.15625 12.660156 14.25 Z M 12.660156 14.25 "/>
<path style=" stroke:none;fill-rule:nonzero;fill:rgb(100%,43.921569%,34.509805%);fill-opacity:1;" d="M 12.660156 18.929688 L 10.273438 21.316406 L 9.921875 20.832031 C 9.839844 20.71875 9.683594 20.691406 9.574219 20.773438 C 9.460938 20.855469 9.441406 21.015625 9.519531 21.121094 L 10.046875 21.839844 C 10.089844 21.894531 10.15625 21.933594 10.230469 21.941406 C 10.234375 21.941406 10.242188 21.941406 10.25 21.941406 C 10.316406 21.941406 10.382812 21.914062 10.425781 21.863281 L 13.015625 19.277344 C 13.113281 19.175781 13.113281 19.015625 13.015625 18.921875 C 12.917969 18.828125 12.761719 18.828125 12.660156 18.929688 Z M 12.660156 18.929688 "/>
<path style=" stroke:none;fill-rule:nonzero;fill:rgb(51.764709%,85.882354%,100%);fill-opacity:1;" d="M 13.644531 11.046875 L 21.007812 11.046875 L 21.007812 11.621094 L 13.644531 11.621094 Z M 13.644531 11.046875 "/>
<path style=" stroke:none;fill-rule:nonzero;fill:rgb(51.764709%,85.882354%,100%);fill-opacity:1;" d="M 13.644531 12.496094 L 18.089844 12.496094 L 18.089844 13.070312 L 13.644531 13.070312 Z M 13.644531 12.496094 "/>
<path style=" stroke:none;fill-rule:nonzero;fill:rgb(51.764709%,85.882354%,100%);fill-opacity:1;" d="M 13.644531 15.722656 L 21.007812 15.722656 L 21.007812 16.296875 L 13.644531 16.296875 Z M 13.644531 15.722656 "/>
<path style=" stroke:none;fill-rule:nonzero;fill:rgb(51.764709%,85.882354%,100%);fill-opacity:1;" d="M 13.644531 17.171875 L 18.089844 17.171875 L 18.089844 17.746094 L 13.644531 17.746094 Z M 13.644531 17.171875 "/>
<path style=" stroke:none;fill-rule:nonzero;fill:rgb(51.764709%,85.882354%,100%);fill-opacity:1;" d="M 13.644531 20.398438 L 21.007812 20.398438 L 21.007812 20.96875 L 13.644531 20.96875 Z M 13.644531 20.398438 "/>
<path style=" stroke:none;fill-rule:nonzero;fill:rgb(51.764709%,85.882354%,100%);fill-opacity:1;" d="M 13.644531 21.84375 L 18.089844 21.84375 L 18.089844 22.417969 L 13.644531 22.417969 Z M 13.644531 21.84375 "/>
</g>
</svg>
